P3
10 10
14
0 0 0 0 0 0 1 1 1 1 1 1 1 1 1 2 2 2 2 2 2 2 2 2 3 3 3 3 3 3 0 0 0 0 0 0 1 1 1 1 1 1 1 1 1 2 2 2 2 2 2 2 2 2 3 3 3 3 3 3 0 0 0 0 0 0 0 14 0 0 14 0 4 4 4 4 4 4 0 14 0 0 14 0 3 3 3 3 3 3 0 0 14 5 5 5 0 14 0 0 14 0 4 4 4 4 4 4 0 14 0 0 14 0 6 6 6 0 0 14 0 0 14 5 5 5 7 7 7 0 0 14 8 8 8 8 8 8 0 0 14 9 9 9 6 6 6 0 0 14 0 0 14 5 5 5 7 7 7 0 0 14 8 8 8 8 8 8 0 0 14 9 9 9 6 6 6 0 0 14 0 0 14 5 5 5 0 14 0 10 10 10 10 10 10 10 10 10 10 10 10 0 14 0 6 6 6 0 0 14 0 0 14 11 11 11 11 11 11 0 14 0 0 14 0 0 14 0 0 14 0 12 12 12 12 12 12 0 0 14 0 0 14 0 0 14 11 11 11 13 13 13 13 13 13 14 14 14 14 14 14 12 12 12 0 0 14 0 0 14 0 0 14 0 0 14 0 0 14 0 0 14 13 13 13 14 14 14 0 0 14 0 0 14 0 0 14 0 0 14 
